<svg version="1.1" id="Layer_1" xmlns="http://www.w3.org/2000/svg" xmlns:xlink="http://www.w3.org/1999/xlink" x="0px" y="0px"
	 width="100%" viewBox="0 0 512 512" enable-background="new 0 0 512 512" xml:space="preserve">
<path fill="none" opacity="1.000000" stroke="none"
	d="
M1.000000,184.000000 
	C1.000000,122.666664 1.000000,61.833332 1.000000,1.000000 
	C171.666672,1.000000 342.333344,1.000000 513.000000,1.000000 
	C513.000000,171.666672 513.000000,342.333344 513.000000,513.000000 
	C342.333344,513.000000 171.666672,513.000000 1.000000,513.000000 
	C1.000000,403.500000 1.000000,294.000000 1.000000,184.000000 
M446.001434,220.356110 
	C446.334747,215.430283 446.947266,210.503403 446.928558,205.578903 
	C446.906708,199.818359 446.590424,194.030945 445.942322,188.307220 
	C444.934631,179.407608 443.923950,170.477631 442.228882,161.692825 
	C438.523560,142.490250 430.823364,124.762901 422.217194,107.255867 
	C409.359894,81.101051 397.247467,54.575996 385.073395,28.091108 
	C378.954498,14.779339 368.410706,8.919073 354.348938,9.101546 
	C345.323242,9.218668 336.308197,10.302042 327.292480,11.004777 
	C314.845642,11.974954 302.398956,12.950747 289.958984,14.004269 
	C274.753082,15.292029 259.493164,16.191290 244.372009,18.149567 
	C232.668015,19.665297 221.003082,22.014465 209.570724,24.962431 
	C194.925003,28.738997 180.991531,34.743713 168.365952,43.078781 
	C156.981781,50.594299 145.840118,58.623604 135.444794,67.433197 
	C129.618347,72.370865 124.945419,78.337662 116.551315,78.784157 
	C112.971725,78.974564 109.374542,79.371155 105.853432,80.035088 
	C86.057014,83.767838 76.591415,96.586548 77.246941,116.235710 
	C77.466286,122.810638 80.117706,129.465393 82.515396,135.756683 
	C84.500870,140.966354 85.747597,145.825546 84.286835,151.392822 
	C79.838470,168.346558 76.279991,185.499954 77.086800,203.143906 
	C77.610725,214.601486 78.884079,226.029999 79.999947,237.454117 
	C81.723579,255.100555 87.856255,271.537689 95.255142,287.365173 
	C104.867561,307.927856 115.517212,328.005280 125.702377,348.300659 
	C130.485779,357.832245 135.278015,367.359985 139.973541,376.934906 
	C145.022949,387.231415 152.416565,394.408020 164.477798,394.952820 
	C171.641922,395.276398 178.845505,395.284668 186.009048,394.953064 
	C204.128128,394.114258 222.240952,393.104340 240.344009,391.967682 
	C253.464752,391.143860 266.556671,389.857483 279.678314,389.052002 
	C293.423035,388.208252 306.826385,385.294434 319.553436,380.505768 
	C332.991547,375.449524 346.412476,369.708191 358.659546,362.310455 
	C370.304199,355.276642 381.387695,346.662689 390.900818,336.961609 
	C398.239441,329.477997 405.457855,325.479309 415.869690,324.731812 
	C426.784027,323.948242 436.816895,319.597137 443.020508,309.637726 
	C450.365570,297.845856 449.690979,285.200562 444.797302,273.034760 
	C441.163818,264.001923 438.541412,255.697693 441.729492,245.774826 
	C444.238922,237.964355 444.655304,229.481415 446.001434,220.356110 
M309.383057,485.087830 
	C310.770599,484.738464 312.684479,483.619934 313.466675,484.155182 
	C325.031250,492.068787 336.182770,490.683472 347.180420,483.093475 
	C357.187775,491.474396 368.238617,491.564606 378.070465,483.863129 
	C381.536163,485.642609 384.569397,488.304840 387.848114,488.652557 
	C394.591370,489.367676 401.550873,489.516296 408.265381,488.666077 
	C417.185333,487.536591 424.153412,482.734680 427.463226,473.977478 
	C432.040527,461.866791 429.752502,449.756165 426.775635,437.738678 
	C426.609039,437.066193 425.198090,436.083679 424.613220,436.230286 
	C419.685120,437.466034 414.814636,438.931549 410.286774,440.225128 
	C411.129700,444.672089 412.027618,448.309570 412.481689,452.001678 
	C414.126251,465.373993 412.955048,473.041016 397.040924,472.001373 
	C396.875000,471.990540 396.707794,472.000641 396.541168,471.999847 
	C389.853760,471.967987 386.611023,469.011475 386.009613,462.308990 
	C385.627502,458.050262 385.373291,453.779907 384.979340,449.522400 
	C384.765381,447.210144 384.609406,444.593445 381.200806,445.083282 
	C376.878815,445.704285 372.585968,446.528076 367.771088,447.351593 
	C368.105408,449.555298 368.658142,451.458038 368.629425,453.351959 
	C368.557556,458.089325 368.791962,462.957703 367.717590,467.492554 
	C367.274719,469.361908 363.864990,471.571838 361.673431,471.723022 
	C358.846375,471.917969 356.060699,470.195160 355.948517,466.299011 
	C355.840149,462.533508 355.394714,458.772552 354.978973,455.022705 
	C354.682037,452.344177 354.189514,449.687317 353.732422,446.679474 
	C348.196045,447.238220 343.317993,447.730499 338.115997,448.255493 
	C338.115997,449.733429 338.118378,451.016846 338.115570,452.300262 
	C338.107178,456.158386 338.604248,460.102234 337.970184,463.854858 
	C336.979279,469.719727 333.082123,472.937622 328.839203,472.346680 
	C323.386292,471.587219 321.189240,468.434998 320.955597,461.759979 
	C320.785126,456.889771 320.204834,452.033966 319.794250,447.013031 
	C316.776367,447.013031 314.269653,446.812012 311.810669,447.068512 
	C309.260864,447.334473 306.757324,448.043732 304.040009,448.598633 
	C304.040009,451.680939 303.742249,454.697479 304.094727,457.636047 
	C305.241486,467.196686 302.879181,471.670593 292.064423,471.856659 
	C266.246735,472.300842 240.416122,471.963562 214.590973,472.032104 
	C209.728317,472.044983 206.758606,469.465973 205.285782,465.331299 
	C204.320206,462.620667 204.073730,459.542542 204.053101,456.625153 
	C203.941238,440.797516 204.000000,424.968658 204.000000,409.140228 
	C204.000000,406.865265 204.000000,404.590302 204.000000,401.829224 
	C198.281967,403.899933 193.160965,405.754456 188.000763,407.623169 
	C188.000763,427.553680 187.480591,447.227386 188.191269,466.856537 
	C188.634216,479.090973 196.655487,489.066589 210.738205,489.024384 
	C238.396042,488.941437 266.056274,489.167908 293.710663,488.847351 
	C298.770966,488.788727 303.808289,486.742493 309.383057,485.087830 
M109.684776,473.931732 
	C103.656464,467.848389 101.109238,460.696289 102.904709,452.160797 
	C104.365593,445.215912 105.751633,438.255280 107.329277,430.525421 
	C102.569183,428.721619 97.186775,426.681946 91.481087,424.519806 
	C86.303558,437.883881 82.612053,450.570587 84.812607,464.696991 
	C87.148613,479.692841 95.242027,489.329773 109.300606,493.512756 
	C121.912773,497.265381 134.887772,497.179626 147.827133,494.135986 
	C162.006424,490.800690 171.203568,482.504883 175.291763,468.402863 
	C178.036102,458.936401 177.614792,449.496216 175.482773,440.124634 
	C174.067017,433.901459 171.789536,427.874329 169.820236,421.508789 
	C162.914474,423.873932 157.002182,425.898804 151.039276,427.941010 
	C157.419724,441.876038 158.927933,444.944946 158.028473,458.395966 
	C157.422791,467.453857 152.421234,475.501312 143.675385,477.424500 
	C136.415329,479.020966 128.612488,478.800323 121.109863,478.361877 
	C117.475830,478.149567 113.978905,475.591187 109.684776,473.931732 
M349.043274,429.556305 
	C349.682892,430.311646 350.501099,430.977509 350.931732,431.837494 
	C352.976471,435.920715 355.187347,435.691437 358.053223,432.535706 
	C360.562622,429.772461 363.421783,427.326843 366.315033,424.560608 
	C362.913605,421.253693 359.958344,418.551941 357.212311,415.652008 
	C355.300323,413.632874 353.737061,413.493622 351.843170,415.614380 
	C349.435699,418.310181 346.881256,420.874725 344.049561,423.854279 
	C340.939178,420.622040 338.608368,417.747253 335.776855,415.504700 
	C334.794952,414.727081 331.945007,414.852722 331.031769,415.714294 
	C328.191528,418.393860 325.870697,421.623932 323.724670,424.190460 
	C327.197784,427.667786 330.701202,431.175476 334.424072,434.902863 
	C337.462463,431.639404 340.715576,428.145264 344.378387,424.211121 
	C346.155609,426.267365 347.355133,427.655212 349.043274,429.556305 
M119.093872,429.446686 
	C122.569664,433.169495 126.045456,436.892273 130.072693,441.205719 
	C133.706070,437.280487 136.839890,434.278259 139.431686,430.864532 
	C140.222839,429.822479 140.200180,427.103119 139.384659,426.091492 
	C136.476501,422.484039 133.066864,419.280823 129.631119,415.699554 
	C126.065742,419.328461 122.759567,422.586853 119.614388,425.993896 
	C119.053055,426.602020 119.158470,427.825592 119.093872,429.446686 
M400.941315,430.380157 
	C405.125183,426.736755 409.309082,423.093353 414.102966,418.918732 
	C410.157959,415.235168 407.015808,412.049225 403.559174,409.251801 
	C402.699585,408.556213 400.329010,408.518799 399.500488,409.203888 
	C395.973907,412.119751 392.765472,415.420410 388.894043,419.100464 
	C393.194824,423.142731 396.807190,426.537964 400.941315,430.380157 
M342.532532,417.017395 
	C343.495789,417.031982 344.842102,417.466125 345.360229,416.993134 
	C348.767487,413.882599 351.996185,410.576416 354.564240,408.043182 
	C350.716217,403.755005 347.232025,399.872284 344.390106,396.705292 
	C340.650330,400.334656 336.994202,403.882843 332.963867,407.794220 
	C335.823761,410.551849 338.922333,413.539581 342.532532,417.017395 
z"/>
<path fill="#484848" opacity="1.000000" stroke="none" 
	d="
M446.001404,220.826645 
	C444.655304,229.481415 444.238922,237.964355 441.729492,245.774826 
	C438.541412,255.697693 441.163818,264.001923 444.797302,273.034760 
	C449.690979,285.200562 450.365570,297.845856 443.020508,309.637726 
	C436.816895,319.597137 426.784027,323.948242 415.869690,324.731812 
	C405.457855,325.479309 398.239441,329.477997 390.900818,336.961609 
	C381.387695,346.662689 370.304199,355.276642 358.659546,362.310455 
	C346.412476,369.708191 332.991547,375.449524 319.553436,380.505768 
	C306.826385,385.294434 293.423035,388.208252 279.678314,389.052002 
	C266.556671,389.857483 253.464752,391.143860 240.344009,391.967682 
	C222.240952,393.104340 204.128128,394.114258 186.009048,394.953064 
	C178.845505,395.284668 171.641922,395.276398 164.477798,394.952820 
	C152.416565,394.408020 145.022949,387.231415 139.973541,376.934906 
	C135.278015,367.359985 130.485779,357.832245 125.702377,348.300659 
	C115.517212,328.005280 104.867561,307.927856 95.255142,287.365173 
	C87.856255,271.537689 81.723579,255.100555 79.999947,237.454117 
	C78.884079,226.029999 77.610725,214.601486 77.086800,203.143906 
	C76.279991,185.499954 79.838470,168.346558 84.286835,151.392822 
	C85.747597,145.825546 84.500870,140.966354 82.515396,135.756683 
	C80.117706,129.465393 77.466286,122.810638 77.246941,116.235710 
	C76.591415,96.586548 86.057014,83.767838 105.853432,80.035088 
	C109.374542,79.371155 112.971725,78.974564 116.551315,78.784157 
	C124.945419,78.337662 129.618347,72.370865 135.444794,67.433197 
	C145.840118,58.623604 156.981781,50.594299 168.365952,43.078781 
	C180.991531,34.743713 194.925003,28.738997 209.570724,24.962431 
	C221.003082,22.014465 232.668015,19.665297 244.372009,18.149567 
	C259.493164,16.191290 274.753082,15.292029 289.958984,14.004269 
	C302.398956,12.950747 314.845642,11.974954 327.292480,11.004777 
	C336.308197,10.302042 345.323242,9.218668 354.348938,9.101546 
	C368.410706,8.919073 378.954498,14.779339 385.073395,28.091108 
	C397.247467,54.575996 409.359894,81.101051 422.217194,107.255867 
	C430.823364,124.762901 438.523560,142.490250 442.228882,161.692825 
	C443.923950,170.477631 444.934631,179.407608 445.942322,188.307220 
	C446.590424,194.030945 446.906708,199.818359 446.928558,205.578903 
	C446.947266,210.503403 446.334747,215.430283 446.001404,220.826645 
M161.099289,63.582062 
	C151.678650,72.218834 142.137405,80.730049 132.922775,89.581291 
	C130.639130,91.774879 128.693970,93.359352 125.375229,93.377228 
	C118.906097,93.412079 112.439018,93.828094 105.971069,94.085541 
	C93.806473,94.569717 87.617249,104.842064 93.009285,115.657722 
	C95.972305,121.601120 98.855095,127.594513 102.098572,133.383545 
	C103.549316,135.972855 103.556084,138.015274 102.464241,140.753723 
	C96.659264,155.313187 93.303284,170.546478 92.238228,186.112686 
	C90.146805,216.679810 95.341171,245.993164 109.072311,273.588623 
	C123.932793,303.453674 139.015366,333.212006 153.462204,363.275818 
	C156.234390,369.044708 159.349579,370.250977 165.168976,369.842010 
	C196.206299,367.660706 227.256363,365.595825 258.327087,363.969849 
	C308.578308,361.340149 350.049561,341.257141 382.611206,302.785797 
	C383.984283,301.163513 386.604645,299.964508 388.759827,299.753876 
	C395.541748,299.091095 402.399567,299.226654 409.190247,298.626312 
	C420.590332,297.618439 425.953430,288.037201 420.979675,277.802429 
	C418.218109,272.119751 415.391693,266.458405 412.320557,260.939911 
	C410.261993,257.240845 409.985870,253.957550 411.376038,249.739914 
	C423.511414,212.922760 423.720978,175.888153 409.802521,139.701385 
	C401.047607,116.939468 389.803375,95.130280 379.560303,72.947037 
	C371.913910,56.387314 364.082703,39.912941 356.402710,23.547379 
	C353.114868,23.740719 350.165833,23.870842 347.223999,24.095129 
	C337.786133,24.814669 328.348114,25.535103 318.915283,26.317122 
	C300.073822,27.879154 281.230042,29.418579 262.398438,31.093184 
	C251.665085,32.047649 240.848358,32.638325 230.253754,34.464050 
	C205.269989,38.769409 182.379776,48.438316 161.099289,63.582062 
z"/>
<path fill="#DB5557" opacity="1.000000" stroke="none" 
	d="
M309.119629,485.350769 
	C303.808289,486.742493 298.770966,488.788727 293.710663,488.847351 
	C266.056274,489.167908 238.396042,488.941437 210.738205,489.024384 
	C196.655487,489.066589 188.634216,479.090973 188.191269,466.856537 
	C187.480591,447.227386 188.000763,427.553680 188.000763,407.623169 
	C193.160965,405.754456 198.281967,403.899933 204.000000,401.829224 
	C204.000000,404.590302 204.000000,406.865265 204.000000,409.140228 
	C204.000000,424.968658 203.941238,440.797516 204.053101,456.625153 
	C204.073730,459.542542 204.320206,462.620667 205.285782,465.331299 
	C206.758606,469.465973 209.728317,472.044983 214.590973,472.032104 
	C240.416122,471.963562 266.246735,472.300842 292.064423,471.856659 
	C302.879181,471.670593 305.241486,467.196686 304.094727,457.636047 
	C303.742249,454.697479 304.040009,451.680939 304.040009,448.598633 
	C306.757324,448.043732 309.260864,447.334473 311.810669,447.068512 
	C314.269653,446.812012 316.776367,447.013031 319.794250,447.013031 
	C320.204834,452.033966 320.785126,456.889771 320.955597,461.759979 
	C321.189240,468.434998 323.386292,471.587219 328.839203,472.346680 
	C333.082123,472.937622 336.979279,469.719727 337.970184,463.854858 
	C338.604248,460.102234 338.107178,456.158386 338.115570,452.300262 
	C338.118378,451.016846 338.115997,449.733429 338.115997,448.255493 
	C343.317993,447.730499 348.196045,447.238220 353.732422,446.679474 
	C354.189514,449.687317 354.682037,452.344177 354.978973,455.022705 
	C355.394714,458.772552 355.840149,462.533508 355.948517,466.299011 
	C356.060699,470.195160 358.846375,471.917969 361.673431,471.723022 
	C363.864990,471.571838 367.274719,469.361908 367.717590,467.492554 
	C368.791962,462.957703 368.557556,458.089325 368.629425,453.351959 
	C368.658142,451.458038 368.105408,449.555298 367.771088,447.351593 
	C372.585968,446.528076 376.878815,445.704285 381.200806,445.083282 
	C384.609406,444.593445 384.765381,447.210144 384.979340,449.522400 
	C385.373291,453.779907 385.627502,458.050262 386.009613,462.308990 
	C386.611023,469.011475 389.853760,471.967987 396.541168,471.999847 
	C396.707794,472.000641 396.875000,471.990540 397.040924,472.001373 
	C412.955048,473.041016 414.126251,465.373993 412.481689,452.001678 
	C412.027618,448.309570 411.129700,444.672089 410.286774,440.225128 
	C414.814636,438.931549 419.685120,437.466034 424.613220,436.230286 
	C425.198090,436.083679 426.609039,437.066193 426.775635,437.738678 
	C429.752502,449.756165 432.040527,461.866791 427.463226,473.977478 
	C424.153412,482.734680 417.185333,487.536591 408.265381,488.666077 
	C401.550873,489.516296 394.591370,489.367676 387.848114,488.652557 
	C384.569397,488.304840 381.536163,485.642609 378.070465,483.863129 
	C368.238617,491.564606 357.187775,491.474396 347.180420,483.093475 
	C336.182770,490.683472 325.031250,492.068787 313.466675,484.155182 
	C312.684479,483.619934 310.770599,484.738464 309.119629,485.350769 
z"/>
<path fill="#DB5557" opacity="1.000000" stroke="none" 
	d="
M110.052338,474.013367 
	C113.978905,475.591187 117.475830,478.149567 121.109863,478.361877 
	C128.612488,478.800323 136.415329,479.020966 143.675385,477.424500 
	C152.421234,475.501312 157.422791,467.453857 158.028473,458.395966 
	C158.927933,444.944946 157.419724,441.876038 151.039276,427.941010 
	C157.002182,425.898804 162.914474,423.873932 169.820236,421.508789 
	C171.789536,427.874329 174.067017,433.901459 175.482773,440.124634 
	C177.614792,449.496216 178.036102,458.936401 175.291763,468.402863 
	C171.203568,482.504883 162.006424,490.800690 147.827133,494.135986 
	C134.887772,497.179626 121.912773,497.265381 109.300606,493.512756 
	C95.242027,489.329773 87.148613,479.692841 84.812607,464.696991 
	C82.612053,450.570587 86.303558,437.883881 91.481087,424.519806 
	C97.186775,426.681946 102.569183,428.721619 107.329277,430.525421 
	C105.751633,438.255280 104.365593,445.215912 102.904709,452.160797 
	C101.109238,460.696289 103.656464,467.848389 110.052338,474.013367 
z"/>
<path fill="#DB5557" opacity="1.000000" stroke="none" 
	d="
M348.798950,429.299683 
	C347.355133,427.655212 346.155609,426.267365 344.378387,424.211121 
	C340.715576,428.145264 337.462463,431.639404 334.424072,434.902863 
	C330.701202,431.175476 327.197784,427.667786 323.724670,424.190460 
	C325.870697,421.623932 328.191528,418.393860 331.031769,415.714294 
	C331.945007,414.852722 334.794952,414.727081 335.776855,415.504700 
	C338.608368,417.747253 340.939178,420.622040 344.049561,423.854279 
	C346.881256,420.874725 349.435699,418.310181 351.843170,415.614380 
	C353.737061,413.493622 355.300323,413.632874 357.212311,415.652008 
	C359.958344,418.551941 362.913605,421.253693 366.315033,424.560608 
	C363.421783,427.326843 360.562622,429.772461 358.053223,432.535706 
	C355.187347,435.691437 352.976471,435.920715 350.931732,431.837494 
	C350.501099,430.977509 349.682892,430.311646 348.798950,429.299683 
z"/>
<path fill="#DB5557" opacity="1.000000" stroke="none" 
	d="
M119.024940,429.105835 
	C119.158470,427.825592 119.053055,426.602020 119.614388,425.993896 
	C122.759567,422.586853 126.065742,419.328461 129.631119,415.699554 
	C133.066864,419.280823 136.476501,422.484039 139.384659,426.091492 
	C140.200180,427.103119 140.222839,429.822479 139.431686,430.864532 
	C136.839890,434.278259 133.706070,437.280487 130.072693,441.205719 
	C126.045456,436.892273 122.569664,433.169495 119.024940,429.105835 
z"/>
<path fill="#DB5557" opacity="1.000000" stroke="none" 
	d="
M400.680420,430.156677 
	C396.807190,426.537964 393.194824,423.142731 388.894043,419.100464 
	C392.765472,415.420410 395.973907,412.119751 399.500488,409.203888 
	C400.329010,408.518799 402.699585,408.556213 403.559174,409.251801 
	C407.015808,412.049225 410.157959,415.235168 414.102966,418.918732 
	C409.309082,423.093353 405.125183,426.736755 400.680420,430.156677 
z"/>
<path fill="#DB5557" opacity="1.000000" stroke="none" 
	d="
M342.276733,416.772369 
	C338.922333,413.539581 335.823761,410.551849 332.963867,407.794220 
	C336.994202,403.882843 340.650330,400.334656 344.390106,396.705292 
	C347.232025,399.872284 350.716217,403.755005 354.564240,408.043182 
	C351.996185,410.576416 348.767487,413.882599 345.360229,416.993134 
	C344.842102,417.466125 343.495789,417.031982 342.276733,416.772369 
z"/>
<path fill="#ECECEC" opacity="1.000000" stroke="none" 
	d="
M161.382645,63.359367 
	C182.379776,48.438316 205.269989,38.769409 230.253754,34.464050 
	C240.848358,32.638325 251.665085,32.047649 262.398438,31.093184 
	C281.230042,29.418579 300.073822,27.879154 318.915283,26.317122 
	C328.348114,25.535103 337.786133,24.814669 347.223999,24.095129 
	C350.165833,23.870842 353.114868,23.740719 356.402710,23.547379 
	C364.082703,39.912941 371.913910,56.387314 379.560303,72.947037 
	C389.803375,95.130280 401.047607,116.939468 409.802521,139.701385 
	C423.720978,175.888153 423.511414,212.922760 411.376038,249.739914 
	C409.985870,253.957550 410.261993,257.240845 412.320557,260.939911 
	C415.391693,266.458405 418.218109,272.119751 420.979675,277.802429 
	C425.953430,288.037201 420.590332,297.618439 409.190247,298.626312 
	C402.399567,299.226654 395.541748,299.091095 388.759827,299.753876 
	C386.604645,299.964508 383.984283,301.163513 382.611206,302.785797 
	C350.049561,341.257141 308.578308,361.340149 258.327087,363.969849 
	C227.256363,365.595825 196.206299,367.660706 165.168976,369.842010 
	C159.349579,370.250977 156.234390,369.044708 153.462204,363.275818 
	C139.015366,333.212006 123.932793,303.453674 109.072311,273.588623 
	C95.341171,245.993164 90.146805,216.679810 92.238228,186.112686 
	C93.303284,170.546478 96.659264,155.313187 102.464241,140.753723 
	C103.556084,138.015274 103.549316,135.972855 102.098572,133.383545 
	C98.855095,127.594513 95.972305,121.601120 93.009285,115.657722 
	C87.617249,104.842064 93.806473,94.569717 105.971069,94.085541 
	C112.439018,93.828094 118.906097,93.412079 125.375229,93.377228 
	C128.693970,93.359352 130.639130,91.774879 132.922775,89.581291 
	C142.137405,80.730049 151.678650,72.218834 161.382645,63.359367 
M174.459549,354.490723 
	C195.041748,353.309845 215.630295,352.228455 236.203903,350.913177 
	C249.964462,350.033478 263.868378,349.815399 277.421661,347.570984 
	C317.648163,340.909485 350.284271,321.114197 375.218018,288.702118 
	C376.406952,287.156616 378.909912,285.979828 380.902008,285.808777 
	C388.343719,285.169830 395.832367,285.095612 403.290649,284.612244 
	C404.458496,284.536560 405.560059,283.437805 406.518097,281.976013 
	C403.013153,275.179565 399.663849,268.296265 395.939484,261.622253 
	C393.992249,258.132874 393.924377,255.128738 395.328857,251.328735 
	C410.292145,210.843674 408.977844,170.801025 390.917297,131.581436 
	C376.803406,100.932251 362.167908,70.523277 347.391815,39.288387 
	C344.579498,39.288990 341.751282,39.094513 338.957397,39.321720 
	C320.258118,40.842392 301.564758,42.436909 282.872223,44.039181 
	C267.155060,45.386414 251.311874,45.931805 235.752991,48.320557 
	C201.505997,53.578499 171.508545,68.299324 148.448044,94.301987 
	C139.267532,104.653793 130.118027,109.920624 116.574875,108.345535 
	C113.321167,107.967133 109.855873,109.408104 106.768921,110.716980 
	C110.539963,118.109657 114.185547,125.570557 118.148827,132.858688 
	C119.571671,135.475174 119.438591,137.500626 118.329819,140.221008 
	C104.129852,175.060486 101.826332,210.684525 114.072792,246.344391 
	C119.648300,262.579468 127.791817,277.973511 135.295456,293.495270 
	C144.973114,313.514160 155.177002,333.278625 165.177139,353.721649 
	C165.277985,353.882446 165.378815,354.043274 165.797729,354.729065 
	C166.192810,354.755432 166.587906,354.781799 167.824219,354.930634 
	C169.232605,354.825562 170.640976,354.720459 172.604675,354.782013 
	C172.941376,354.619873 173.278076,354.457764 174.459549,354.490723 
z"/>
<path fill="#F05F61" opacity="1.000000" stroke="none" 
	d="
M106.487885,110.012360 
	C109.855873,109.408104 113.321167,107.967133 116.574875,108.345535 
	C130.118027,109.920624 139.267532,104.653793 148.448044,94.301987 
	C171.508545,68.299324 201.505997,53.578499 235.752991,48.320557 
	C251.311874,45.931805 267.155060,45.386414 282.872223,44.039181 
	C301.564758,42.436909 320.258118,40.842392 338.957397,39.321720 
	C341.751282,39.094513 344.579498,39.288990 347.253723,39.715103 
	C346.586243,40.749496 345.940094,41.289791 345.544617,41.974800 
	C337.823334,55.348305 330.080017,68.709579 322.453247,82.137001 
	C318.199188,89.626572 314.148926,97.231911 309.677246,104.709717 
	C263.336792,78.468437 208.459091,87.789062 173.706726,127.780655 
	C169.706360,132.384125 166.216415,137.431137 162.188828,142.048920 
	C159.593857,140.474960 157.313385,139.100967 155.003693,137.778015 
	C138.835129,128.516891 122.660545,119.266312 106.487885,110.012360 
z"/>
<path fill="#DB5658" opacity="1.000000" stroke="none" 
	d="
M310.006836,104.785080 
	C314.148926,97.231911 318.199188,89.626572 322.453247,82.137001 
	C330.080017,68.709579 337.823334,55.348305 345.544617,41.974800 
	C345.940094,41.289791 346.586243,40.749496 347.439911,40.074699 
	C362.167908,70.523277 376.803406,100.932251 390.917297,131.581436 
	C408.977844,170.801025 410.292145,210.843674 395.328857,251.328735 
	C393.924377,255.128738 393.992249,258.132874 395.939484,261.622253 
	C399.663849,268.296265 403.013153,275.179565 406.175842,282.218689 
	C387.492126,271.926208 369.150696,261.391052 350.879883,250.503220 
	C363.310150,226.444153 367.282898,201.549088 361.347198,175.324326 
	C354.362915,144.466843 336.938202,121.152496 310.006836,104.785080 
z"/>
<path fill="#164059" opacity="1.000000" stroke="none" 
	d="
M350.809265,250.855896 
	C369.150696,261.391052 387.492126,271.926208 406.262939,282.636749 
	C405.560059,283.437805 404.458496,284.536560 403.290649,284.612244 
	C395.832367,285.095612 388.343719,285.169830 380.902008,285.808777 
	C378.909912,285.979828 376.406952,287.156616 375.218018,288.702118 
	C350.284271,321.114197 317.648163,340.909485 277.421661,347.570984 
	C263.868378,349.815399 249.964462,350.033478 236.203903,350.913177 
	C215.630295,352.228455 195.041748,353.309845 173.757294,354.326416 
	C172.719818,354.313202 172.384598,354.464294 172.049362,354.615387 
	C170.640976,354.720459 169.232605,354.825562 167.208160,354.657410 
	C166.221283,354.324127 165.850464,354.264099 165.479660,354.204071 
	C165.378815,354.043274 165.277985,353.882446 165.542633,353.328064 
	C170.470947,345.292694 175.125076,337.703522 179.567963,329.992645 
	C183.181091,323.721863 186.541016,317.305206 190.478302,311.007507 
	C216.040649,310.847107 241.106506,309.995270 265.928619,305.945129 
	C286.440918,302.598175 305.873260,296.472107 322.661469,283.476013 
	C334.293549,274.471344 343.115906,263.185669 350.809265,250.855896 
z"/>
<path fill="#23506A" opacity="1.000000" stroke="none" 
	d="
M190.013229,310.953217 
	C186.541016,317.305206 183.181091,323.721863 179.567963,329.992645 
	C175.125076,337.703522 170.470947,345.292694 165.531189,353.043579 
	C155.177002,333.278625 144.973114,313.514160 135.295456,293.495270 
	C127.791817,277.973511 119.648300,262.579468 114.072792,246.344391 
	C101.826332,210.684525 104.129852,175.060486 118.329819,140.221008 
	C119.438591,137.500626 119.571671,135.475174 118.148827,132.858688 
	C114.185547,125.570557 110.539963,118.109657 106.628403,110.364670 
	C122.660545,119.266312 138.835129,128.516891 155.003693,137.778015 
	C157.313385,139.100967 159.593857,140.474960 162.046127,142.378738 
	C150.081039,164.147614 145.506653,186.830078 149.069809,211.058243 
	C151.900269,230.304428 158.730270,248.275787 167.142319,265.650970 
	C174.512604,280.874390 182.370636,295.861633 190.013229,310.953217 
z"/>
<path fill="#23506A" opacity="1.000000" stroke="none" 
	d="
M165.638702,354.466553 
	C165.850464,354.264099 166.221283,354.324127 166.787537,354.596161 
	C166.587906,354.781799 166.192810,354.755432 165.638702,354.466553 
z"/>
<path fill="#23506A" opacity="1.000000" stroke="none" 
	d="
M172.327026,354.698700 
	C172.384598,354.464294 172.719818,354.313202 173.334915,354.228882 
	C173.278076,354.457764 172.941376,354.619873 172.327026,354.698700 
z"/>
<path fill="#EEEEEE" opacity="1.000000" stroke="none" 
	d="
M190.478302,311.007507 
	C182.370636,295.861633 174.512604,280.874390 167.142319,265.650970 
	C158.730270,248.275787 151.900269,230.304428 149.069809,211.058243 
	C145.506653,186.830078 150.081039,164.147614 162.347107,142.602325 
	C166.216415,137.431137 169.706360,132.384125 173.706726,127.780655 
	C208.459091,87.789062 263.336792,78.468437 309.677246,104.709717 
	C336.938202,121.152496 354.362915,144.466843 361.347198,175.324326 
	C367.282898,201.549088 363.310150,226.444153 350.879883,250.503235 
	C343.115906,263.185669 334.293549,274.471344 322.661469,283.476013 
	C305.873260,296.472107 286.440918,302.598175 265.928619,305.945129 
	C241.106506,309.995270 216.040649,310.847107 190.478302,311.007507 
M203.432983,149.910370 
	C190.648056,162.930954 185.575745,177.941940 191.230621,195.914871 
	C191.784546,197.675400 191.367386,200.158066 190.517029,201.865219 
	C188.033356,206.851303 185.101929,211.614349 182.232422,216.664719 
	C186.286255,219.015366 189.777390,221.290588 193.486328,223.125610 
	C197.915588,225.317047 200.162704,228.358078 201.398285,233.458023 
	C206.936005,256.315277 234.167542,270.444153 256.086761,262.517548 
	C257.763367,261.911224 260.238556,262.220795 261.875610,263.038910 
	C266.859711,265.529724 271.615051,268.478363 276.839294,271.465973 
	C279.824249,266.243347 282.403656,261.422180 285.315063,256.810638 
	C286.277618,255.285934 287.991882,253.383514 289.538910,253.207825 
	C313.129242,250.528885 331.401184,221.744598 322.541809,197.598022 
	C321.862213,195.745743 322.279449,193.001953 323.177887,191.154465 
	C325.559906,186.256165 328.485352,181.622147 331.368805,176.578201 
	C326.455048,173.730881 321.696503,171.326462 317.369659,168.304047 
	C315.461853,166.971390 313.540985,164.545959 313.138367,162.340576 
	C308.775452,138.441315 280.767578,122.283340 257.871735,130.485535 
	C255.921249,131.184280 253.075653,130.818924 251.157013,129.891037 
	C246.272629,127.528862 241.677994,124.567558 236.810379,121.755318 
	C233.789490,126.933807 231.196045,131.776077 228.177490,136.337021 
	C227.133911,137.913818 225.179489,139.493652 223.390427,139.865326 
	C216.039337,141.392502 209.543030,144.418991 203.432983,149.910370 
z"/>
<path fill="#39B798" opacity="1.000000" stroke="none" 
	d="
M203.693298,149.662842 
	C209.543030,144.418991 216.039337,141.392502 223.390427,139.865326 
	C225.179489,139.493652 227.133911,137.913818 228.177490,136.337021 
	C231.196045,131.776077 233.789490,126.933807 236.810379,121.755318 
	C241.677994,124.567558 246.272629,127.528862 251.157013,129.891037 
	C253.075653,130.818924 255.921249,131.184280 257.871735,130.485535 
	C280.767578,122.283340 308.775452,138.441315 313.138367,162.340576 
	C313.540985,164.545959 315.461853,166.971390 317.369659,168.304047 
	C321.696503,171.326462 326.455048,173.730881 331.368805,176.578201 
	C328.485352,181.622147 325.559906,186.256165 323.177887,191.154465 
	C322.279449,193.001953 321.862213,195.745743 322.541809,197.598022 
	C331.401184,221.744598 313.129242,250.528885 289.538910,253.207825 
	C287.991882,253.383514 286.277618,255.285934 285.315063,256.810638 
	C282.403656,261.422180 279.824249,266.243347 276.839294,271.465973 
	C271.615051,268.478363 266.859711,265.529724 261.875610,263.038910 
	C260.238556,262.220795 257.763367,261.911224 256.086761,262.517548 
	C234.167542,270.444153 206.936005,256.315277 201.398285,233.458023 
	C200.162704,228.358078 197.915588,225.317047 193.486328,223.125610 
	C189.777390,221.290588 186.286255,219.015366 182.232422,216.664719 
	C185.101929,211.614349 188.033356,206.851303 190.517029,201.865219 
	C191.367386,200.158066 191.784546,197.675400 191.230621,195.914871 
	C185.575745,177.941940 190.648056,162.930954 203.693298,149.662842 
z"/>
</svg>
